<svg width="25" height="24" viewBox="0 0 25 24" fill="none" xmlns="http://www.w3.org/2000/svg">
<path d="M22.4005 10.0415H21.573V10H12.3274V14H18.1332C17.2862 16.3285 15.0102 18 12.3274 18C8.92352 18 6.16371 15.3135 6.16371 12C6.16371 8.6865 8.92352 6 12.3274 6C13.8987 6 15.3281 6.577 16.4166 7.5195L19.3222 4.691C17.4875 3.0265 15.0333 2 12.3274 2C6.65424 2 2.05457 6.4775 2.05457 12C2.05457 17.5225 6.65424 22 12.3274 22C18.0006 22 22.6003 17.5225 22.6003 12C22.6003 11.3295 22.5294 10.675 22.4005 10.0415Z" fill="#FFC107"/>
<path d="M3.23904 7.3455L6.6142 9.755C7.52745 7.554 9.7392 6 12.3275 6C13.8987 6 15.3282 6.577 16.4166 7.5195L19.3223 4.691C17.4875 3.0265 15.0333 2 12.3275 2C8.38164 2 4.95975 4.1685 3.23904 7.3455Z" fill="#FF3D00"/>
<path d="M12.3275 22C14.9809 22 17.392 21.0115 19.2149 19.404L16.0355 16.785C14.9694 17.5742 13.6668 18.001 12.3275 18C9.65549 18 7.38672 16.3415 6.53202 14.027L3.18204 16.5395C4.8822 19.778 8.33491 22 12.3275 22Z" fill="#4CAF50"/>
<path d="M22.4005 10.0415H21.573V10H12.3275V14H18.1332C17.728 15.1082 16.9982 16.0766 16.0339 16.7855L16.0354 16.7845L19.2149 19.4035C18.9899 19.6025 22.6003 17 22.6003 12C22.6003 11.3295 22.5294 10.675 22.4005 10.0415Z" fill="#1976D2"/>
</svg>
